<svg width="123" height="27" viewBox="0 0 123 27" fill="none" xmlns="http://www.w3.org/2000/svg">
<path d="M49.8203 18.3508C49.0239 19.1472 48.0434 19.7349 46.9656 20.0618C45.8877 20.3888 44.7459 20.4448 43.6413 20.2249C42.5367 20.005 41.5033 19.516 40.6329 18.8013C39.7624 18.0866 39.0817 17.1682 38.651 16.1275C38.2203 15.0868 38.053 13.9559 38.1638 12.8351C38.2747 11.7143 38.6603 10.6381 39.2866 9.70197C39.9128 8.76581 40.7603 7.99857 41.7539 7.46825C42.7475 6.93792 43.8566 6.66088 44.9829 6.66168C45.8804 6.65999 46.7692 6.83726 47.5973 7.18314C48.4255 7.52902 49.1764 8.03655 49.8061 8.67605H49.8203L54.0334 4.44869C52.2416 2.65474 49.9578 1.43257 47.4712 0.936821C44.9846 0.441074 42.4068 0.694021 40.0639 1.66366C37.7211 2.6333 35.7185 4.27606 34.3095 6.3841C32.9005 8.49215 32.1484 10.9707 32.1484 13.5063C32.1484 16.0419 32.9005 18.5205 34.3095 20.6285C35.7185 22.7366 37.7211 24.3793 40.0639 25.349C42.4068 26.3186 44.9846 26.5716 47.4712 26.0758C49.9578 25.5801 52.2416 24.3579 54.0334 22.5639L49.8203 18.3508Z" fill="#52565E"/>
<path d="M69.0393 0.689455C66.5043 0.688053 64.0259 1.43838 61.9174 2.84554C59.8089 4.25271 58.1651 6.25352 57.1937 8.59496C56.2223 10.9364 55.9671 13.5133 56.4602 15.9998C56.9534 18.4863 58.1728 20.7707 59.9643 22.5642C61.7558 24.3576 64.0388 25.5796 66.5248 26.0755C69.0107 26.5714 71.5879 26.319 73.9304 25.3502C76.2729 24.3815 78.2756 22.7398 79.6851 20.6329C81.0946 18.5259 81.8476 16.0483 81.849 13.5134C81.8502 10.1144 80.5014 6.85406 78.0992 4.44927C75.6971 2.04447 72.4383 0.692088 69.0393 0.689455ZM69.0393 20.3651C67.6835 20.3679 66.3574 19.9685 65.2288 19.2173C64.1002 18.4661 63.2198 17.397 62.699 16.1453C62.1782 14.8935 62.0405 13.5155 62.3033 12.1854C62.5661 10.8554 63.2175 9.63318 64.1752 8.67353C65.1328 7.71388 66.3537 7.05991 67.6832 6.79438C69.0127 6.52885 70.391 6.66371 71.6438 7.18188C72.8967 7.70005 73.9676 8.57824 74.7211 9.70531C75.4746 10.8324 75.8768 12.1576 75.8768 13.5134C75.878 15.3285 75.1584 17.0697 73.8763 18.3545C72.5941 19.6393 70.8544 20.3625 69.0393 20.3651Z" fill="#52565E"/>
<path d="M100.589 11.7974C100.589 8.27936 98.7448 6.39265 96.0353 6.39265C93.2407 6.39265 91.2405 8.29355 91.2405 11.7974V25.8414H84.8853V1.1581H91.2405V4.33571C92.5739 2.2504 94.8437 0.675781 98.305 0.675781C101.341 0.675781 103.993 1.9525 105.511 4.80384C106.93 2.51993 109.639 0.675781 113.668 0.675781C118.889 0.675781 122.69 3.95269 122.69 11.4995V25.8272H116.278V11.7832C116.278 8.26517 114.477 6.37847 111.725 6.37847C108.93 6.37847 106.93 8.27936 106.93 11.7832V25.8272H100.575V11.7974H100.589Z" fill="#52565E"/>
<path d="M22.382 11.9246C22.3801 8.94542 21.1958 6.08881 19.0892 3.98222C16.9826 1.87563 14.126 0.691332 11.1468 0.689453C5.21717 0.689453 2.42257 4.09404 1.0891 7.14398C0.382807 8.77447 0.0124978 10.5306 0.000310925 12.3075C-0.011876 14.0843 0.33431 15.8454 1.01818 17.4854C1.9859 19.7944 3.53861 21.8113 5.52326 23.3374C7.50791 24.8635 9.85599 25.8461 12.3361 26.1884C14.8161 26.5306 17.3426 26.2206 19.6663 25.2891C21.9901 24.3575 24.0311 22.8364 25.5879 20.8758L28.723 24.706V11.9104H22.382V11.9246ZM14.3102 19.9821C12.1743 19.9787 10.1268 19.1287 8.61645 17.6184C7.1061 16.108 6.25611 14.0605 6.25273 11.9246H18.2681L21.4031 15.7547C20.7133 17.0347 19.6895 18.1037 18.4406 18.8481C17.1916 19.5924 15.7642 19.9843 14.3102 19.9821Z" fill="#3D9EBE"/>
</svg>
